<?xml version="1.0" standalone="no"?>
<!DOCTYPE svg PUBLIC "-//W3C//DTD SVG 20010904//EN"
 "http://www.w3.org/TR/2001/REC-SVG-20010904/DTD/svg10.dtd">
<svg version="1.0" xmlns="http://www.w3.org/2000/svg"
 width="500.000000pt" height="500.000000pt" viewBox="0 0 500.000000 500.000000"
 preserveAspectRatio="xMidYMid meet">

<g transform="translate(0.000000,500.000000) scale(0.100000,-0.100000)"
fill="#000000" stroke="none">
<path d="M1294 3956 c-3 -8 -4 -21 -1 -28 3 -7 6 -2 7 12 1 24 1 24 15 6 8
-11 15 -15 15 -9 0 6 -7 16 -15 23 -12 10 -16 9 -21 -4z"/>
<path d="M2454 3893 c-9 -21 -97 -226 -195 -456 l-179 -418 33 -66 33 -65 135
316 c73 174 136 316 139 316 5 0 262 -606 286 -672 6 -17 -11 -18 -265 -18
l-271 0 22 -45 22 -45 267 0 c224 0 269 -2 276 -15 6 -10 29 32 75 134 l67
148 -192 459 c-167 400 -195 459 -215 462 -18 3 -26 -4 -38 -35z"/>
<path d="M1332 3895 c0 -16 2 -22 5 -12 2 9 2 23 0 30 -3 6 -5 -1 -5 -18z"/>
<path d="M1283 3865 c0 -27 2 -38 4 -22 2 15 2 37 0 50 -2 12 -4 0 -4 -28z"/>
<path d="M1401 3837 c-1 -23 3 -36 9 -32 6 4 10 -25 10 -79 0 -47 -2 -86 -5
-86 -3 0 -10 10 -15 23 -7 16 -8 8 -4 -28 4 -27 8 -52 10 -54 1 -2 10 22 19
53 9 30 20 58 25 61 5 3 7 12 4 19 -7 19 68 92 110 107 20 7 36 16 36 21 0 22
-83 -31 -132 -86 l-38 -41 0 50 c-1 28 -7 64 -15 80 l-13 30 -1 -38z"/>
<path d="M1332 3830 c0 -19 2 -27 5 -17 2 9 2 25 0 35 -3 9 -5 1 -5 -18z"/>
<path d="M1180 3820 c0 -5 5 -10 11 -10 5 0 8 -4 4 -9 -3 -5 0 -13 6 -17 8 -4
9 -3 5 4 -13 22 10 12 34 -13 13 -14 20 -25 15 -25 -4 0 0 -10 11 -22 12 -14
14 -18 4 -13 -8 5 -3 -3 11 -17 41 -39 63 -162 47 -263 l-7 -40 10 35 c6 19
19 53 30 75 11 22 13 32 5 21 -14 -17 -15 -16 -21 20 -8 48 -12 65 -31 134 -9
30 -20 69 -24 85 -6 23 -8 25 -9 8 -1 -12 -6 -25 -13 -29 -6 -4 -8 -3 -5 3 4
6 -11 27 -33 47 -42 38 -50 42 -50 26z"/>
<path d="M1539 3754 c-23 -25 -23 -26 -2 -13 13 7 25 19 27 26 8 19 2 16 -25
-13z"/>
<path d="M1221 3753 c7 -12 15 -20 18 -17 3 2 -3 12 -13 22 -17 16 -18 16 -5
-5z"/>
<path d="M1392 3740 c0 -19 2 -27 5 -17 2 9 2 25 0 35 -3 9 -5 1 -5 -18z"/>
<path d="M990 3701 c0 -5 7 -16 15 -24 8 -8 11 -18 7 -21 -3 -4 2 -4 13 0 17
7 18 5 8 -7 -9 -12 -7 -29 13 -84 29 -84 28 -82 7 -63 -10 8 -26 18 -36 21
-15 6 -16 4 -6 -16 15 -28 24 -37 16 -15 -4 12 -2 15 8 11 8 -3 12 -10 8 -17
-3 -6 -3 -8 2 -4 4 4 14 3 22 -3 7 -6 13 -8 13 -4 0 4 8 1 17 -6 15 -12 16
-12 10 4 -4 10 -7 21 -7 23 0 3 -5 2 -12 -2 -8 -5 -9 -2 -5 9 3 10 4 24 0 33
-5 13 -8 13 -15 2 -7 -9 -8 -4 -3 15 4 21 3 27 -6 21 -9 -5 -10 -2 -6 9 8 21
-2 49 -14 41 -5 -3 -9 -1 -9 5 0 26 21 18 44 -16 15 -21 26 -33 26 -27 0 16
-58 90 -85 108 -14 9 -25 12 -25 7z"/>
<path d="M1115 3525 c16 -45 15 -52 -6 -70 -12 -11 -19 -15 -16 -8 8 13 -9 28
-17 14 -3 -4 4 -17 15 -27 11 -10 18 -23 15 -29 -2 -6 4 -16 14 -23 10 -6 20
-26 24 -45 4 -19 15 -46 26 -60 28 -35 59 -107 61 -137 l1 -25 8 25 c12 36 12
59 1 42 -6 -11 -10 -8 -14 10 -4 13 -19 44 -36 68 -33 52 -65 167 -57 207 3
17 -1 38 -10 53 -10 17 -13 19 -9 5z"/>
<path d="M848 3493 c6 -2 18 -2 25 0 6 3 1 5 -13 5 -14 0 -19 -2 -12 -5z"/>
<path d="M948 3468 c26 -28 29 -48 6 -48 -8 0 -13 4 -10 9 3 4 -7 6 -21 3 -24
-4 -25 -6 -7 -12 10 -4 36 -10 57 -13 l38 -6 -31 39 c-17 22 -37 43 -43 46 -7
4 -2 -4 11 -18z"/>
<path d="M857 3474 c-9 -9 11 -44 25 -44 6 0 5 6 -3 17 -8 9 -12 18 -11 20 6
8 -4 13 -11 7z"/>
<path d="M1060 3425 c13 -14 26 -25 28 -25 3 0 -5 11 -18 25 -13 14 -26 25
-28 25 -3 0 5 -11 18 -25z"/>
<path d="M995 3390 l-20 -9 20 -1 c11 -2 27 -1 35 0 28 4 -20 -38 -51 -45 -36
-8 -72 2 -62 18 4 7 -1 5 -11 -2 -17 -14 -16 -15 6 -24 34 -13 87 -1 115 25
23 21 24 22 53 4 17 -9 30 -15 30 -12 0 5 -84 56 -91 55 -2 0 -13 -4 -24 -9z"/>
<path d="M940 3370 c-8 -5 -10 -10 -5 -10 6 0 17 5 25 10 8 5 11 10 5 10 -5 0
-17 -5 -25 -10z"/>
<path d="M980 3360 c-9 -6 -10 -10 -3 -10 6 0 15 5 18 10 8 12 4 12 -15 0z"/>
<path d="M1421 3343 c-9 -22 -9 -37 -1 -58 6 -15 8 -30 5 -33 -2 -3 -8 6 -13
19 -9 22 -9 21 -15 -11 -11 -67 -16 -125 -9 -105 4 11 20 43 35 72 15 29 27
60 26 70 -1 12 -3 10 -8 -7 l-7 -25 -7 28 c-9 33 1 56 14 36 7 -11 9 -11 9 1
0 8 -4 21 -9 28 -6 10 -11 6 -20 -15z m-6 -103 c3 -5 1 -10 -4 -10 -6 0 -11 5
-11 10 0 6 2 10 4 10 3 0 8 -4 11 -10z"/>
<path d="M1553 3277 c-37 -20 -102 -87 -138 -139 l-33 -49 -10 38 c-10 37 -10
37 -11 8 -2 -29 -2 -29 -16 -11 -8 11 -15 15 -15 10 0 -6 7 -19 15 -30 22 -29
19 -45 -30 -135 -53 -100 -58 -123 -10 -52 38 56 92 104 110 96 7 -2 15 3 18
11 10 25 -8 19 -57 -19 -25 -19 -46 -32 -46 -29 0 3 18 36 39 72 39 67 72 104
101 115 11 4 10 6 -4 6 -18 1 -16 5 10 32 47 50 85 74 94 60 5 -9 9 -6 13 8 6
24 1 25 -30 8z"/>
<path d="M1520 3189 c-19 -11 -28 -19 -19 -19 9 0 27 9 40 20 29 23 25 23 -21
-1z"/>
<path d="M1470 3125 c0 -23 4 -25 43 -25 52 0 123 -34 151 -73 21 -28 21 -38
21 -686 0 -619 -1 -658 -18 -685 -24 -36 -90 -66 -149 -66 -41 0 -48 -3 -48
-20 0 -20 7 -20 275 -20 262 0 275 1 275 19 0 15 -10 19 -65 23 -82 7 -126 32
-143 82 -9 29 -12 173 -10 618 l3 580 144 -314 c464 -1012 462 -1008 485
-1008 18 0 62 89 326 667 l305 667 3 -99 c2 -55 2 -323 0 -595 -2 -404 -6
-500 -17 -523 -22 -42 -73 -69 -147 -75 -54 -4 -64 -8 -64 -23 0 -18 15 -19
340 -19 325 0 340 1 340 19 0 15 -11 19 -65 24 -74 7 -117 28 -137 66 -17 34
-25 1289 -8 1351 15 57 56 82 141 88 65 4 69 6 69 29 l0 23 -226 -2 -226 -3
-278 -610 c-153 -335 -282 -615 -286 -622 -6 -9 -104 193 -298 612 l-289 625
-224 0 -223 0 0 -25z"/>
<path d="M1213 2960 c0 -47 2 -66 4 -42 2 23 2 61 0 85 -2 23 -4 4 -4 -43z"/>
<path d="M1395 2974 c-9 -15 -12 -23 -6 -20 11 7 35 46 28 46 -3 0 -12 -12
-22 -26z"/>
<path d="M1344 2934 c-18 -14 -18 -15 4 -4 12 6 22 13 22 15 0 8 -5 6 -26 -11z"/>
<path d="M3916 2921 c-4 -6 -2 -11 3 -11 6 0 12 -15 12 -32 2 -30 2 -31 6 -6
5 32 -10 67 -21 49z"/>
<path d="M3892 2888 c-17 -22 -63 -119 -60 -127 2 -5 19 25 39 66 36 73 40 84
21 61z"/>
<path d="M1221 2854 c-1 -24 35 -134 49 -148 5 -5 -1 20 -14 57 -14 36 -26 76
-29 89 -4 21 -4 21 -6 2z"/>
<path d="M3763 2802 c0 -20 2 -30 5 -22 3 8 8 17 13 20 4 3 2 13 -5 22 -10 14
-12 11 -13 -20z"/>
<path d="M3912 2808 c-10 -30 -10 -31 3 -14 13 17 21 46 12 46 -1 0 -8 -15
-15 -32z"/>
<path d="M3547 2676 c2 -91 0 -116 -12 -126 -10 -8 -15 -9 -15 -2 0 6 5 14 10
17 6 3 9 25 8 48 l-1 42 -4 -40 c-3 -22 -9 -45 -14 -51 -10 -13 -1 -47 11 -39
4 2 7 -9 6 -25 -1 -27 -2 -28 -21 -12 -16 13 -15 11 3 -9 13 -15 23 -40 23
-60 1 -27 3 -23 11 21 5 30 16 67 24 82 8 14 13 46 13 70 l-2 43 -6 -52 c-11
-90 -21 -70 -21 42 0 114 5 127 19 54 9 -43 9 -43 10 -9 0 30 -31 120 -42 120
-2 0 -2 -51 0 -114z"/>
<path d="M3786 2781 c-4 -6 -2 -11 3 -11 6 0 11 -8 12 -17 0 -10 3 -13 5 -6 8
18 -11 49 -20 34z"/>
<path d="M3963 2761 c-6 -17 -7 -29 -2 -25 5 3 9 1 9 -5 0 -19 -40 -117 -56
-137 -14 -18 -15 -17 -11 21 6 47 -5 23 -21 -45 l-10 -45 41 48 c23 26 48 47
56 47 11 0 9 4 -5 16 -10 8 -14 13 -8 10 6 -3 28 4 50 14 21 11 59 22 84 26
l45 7 -25 -29 -25 -29 33 30 34 30 -36 3 c-21 2 -60 -7 -96 -21 -64 -26 -66
-26 -49 21 6 17 9 45 7 62 l-3 33 -12 -32z"/>
<path d="M3771 2744 c0 -11 3 -14 6 -6 3 7 2 16 -1 19 -3 4 -6 -2 -5 -13z"/>
<path d="M3811 2727 c-7 -9 -18 -14 -24 -10 -6 3 -7 1 -3 -6 4 -6 12 -9 17 -5
6 3 9 -2 7 -11 -5 -29 18 -28 37 2 15 22 15 25 3 15 -14 -11 -17 -10 -20 9 -3
20 -4 21 -17 6z"/>
<path d="M3920 2680 c-6 -11 -8 -20 -6 -20 3 0 10 9 16 20 6 11 8 20 6 20 -3
0 -10 -9 -16 -20z"/>
<path d="M3811 2618 c-3 -94 -43 -174 -140 -283 -26 -29 -20 -25 13 10 111
116 144 155 124 144 -19 -10 -20 -9 -13 7 15 37 26 104 22 131 -3 24 -4 22 -6
-9z"/>
<path d="M3398 2615 c5 -11 12 -27 15 -35 5 -13 6 -13 6 1 1 8 -6 24 -15 35
-15 19 -15 19 -6 -1z"/>
<path d="M3481 2589 c1 -28 3 -35 6 -19 3 14 9 28 14 31 6 3 3 11 -6 19 -13
11 -15 7 -14 -31z"/>
<path d="M4028 2623 c7 -3 16 -2 19 1 4 3 -2 6 -13 5 -11 0 -14 -3 -6 -6z"/>
<path d="M3320 2611 c0 -14 26 -38 74 -69 l41 -27 -40 -3 c-22 -1 -51 -5 -65
-8 l-25 -6 23 -19 c31 -24 84 -34 112 -19 18 10 25 8 43 -7 12 -10 5 3 -16 29
-20 25 -37 54 -37 64 0 9 -3 14 -7 11 -3 -4 -18 3 -32 15 -14 13 -19 15 -12 6
24 -31 -6 -19 -33 13 -14 17 -26 26 -26 20z m120 -106 c0 -3 -10 -10 -22 -15
-22 -8 -21 -9 7 -10 26 0 28 -2 12 -11 -23 -14 -90 -2 -81 13 5 7 1 9 -9 5
-10 -3 -17 -2 -17 3 0 5 24 11 53 13 28 2 53 4 55 5 1 1 2 0 2 -3z"/>
<path d="M1890 2303 l0 -143 65 0 c36 0 65 3 65 6 0 16 -27 53 -63 86 -37 35
-39 40 -34 80 4 31 0 52 -13 78 l-19 35 -1 -142z"/>
<path d="M2936 2370 c-16 -36 -43 -96 -61 -135 l-33 -70 60 -3 c33 -2 62 -1
64 1 3 2 3 65 2 138 l-3 134 -29 -65z"/>
<path d="M3510 2410 c6 -11 13 -20 16 -20 2 0 0 9 -6 20 -6 11 -13 20 -16 20
-2 0 0 -9 6 -20z"/>
<path d="M3531 2364 c0 -11 3 -14 6 -6 3 7 2 16 -1 19 -3 4 -6 -2 -5 -13z"/>
<path d="M3545 2260 c0 -49 4 -75 9 -70 11 11 9 101 -2 131 -4 10 -7 -18 -7
-61z"/>
<path d="M3778 2280 c-20 -25 -50 -69 -67 -99 l-32 -54 66 58 c63 56 80 84 73
121 -2 14 -11 9 -40 -26z m12 -41 c-12 -16 -25 -28 -28 -25 -3 3 -12 0 -20 -7
-11 -9 -11 -5 2 15 10 15 23 25 29 21 5 -3 7 -2 4 4 -3 5 1 21 11 34 14 21 17
21 20 7 2 -10 -6 -32 -18 -49z"/>
<path d="M3584 2238 l-19 -23 23 19 c21 18 27 26 19 26 -2 0 -12 -10 -23 -22z"/>
<path d="M1580 2185 c0 -14 5 -25 10 -25 6 0 10 11 10 25 0 14 -4 25 -10 25
-5 0 -10 -11 -10 -25z"/>
<path d="M3390 2185 c0 -14 5 -25 10 -25 6 0 10 11 10 25 0 14 -4 25 -10 25
-5 0 -10 -11 -10 -25z"/>
<path d="M3671 2174 c0 -11 3 -14 6 -6 3 7 2 16 -1 19 -3 4 -6 -2 -5 -13z"/>
<path d="M3883 2183 c9 -2 17 -9 17 -14 0 -6 -5 -7 -12 -3 -7 5 -8 3 -4 -5 6
-9 13 -8 27 5 25 23 24 24 -13 23 -18 -1 -25 -3 -15 -6z"/>
<path d="M3805 2165 c-39 -17 -21 -18 25 0 19 7 28 14 20 14 -8 0 -28 -6 -45
-14z"/>
<path d="M3637 2112 c4 -39 1 -45 -33 -75 -97 -82 -120 -106 -97 -100 13 3 20
9 17 14 -3 5 2 9 10 9 9 0 16 4 16 9 0 5 24 16 53 25 47 14 48 16 13 12 l-38
-5 38 34 c22 19 64 47 94 63 30 16 56 34 57 40 2 7 -22 -4 -53 -24 -39 -25
-53 -30 -46 -17 5 10 6 27 1 38 -6 17 -8 17 -8 3 -1 -10 -5 -18 -10 -18 -5 0
-12 8 -14 18 -2 9 -2 -2 0 -26z"/>
<path d="M3877 2133 c-4 -3 -24 -9 -44 -13 -36 -7 -36 -8 -7 -9 16 0 39 6 50
14 10 8 16 15 13 15 -3 0 -9 -3 -12 -7z"/>
<path d="M3462 2045 c-17 -37 -14 -45 4 -12 9 16 14 31 11 33 -2 2 -9 -7 -15
-21z"/>
<path d="M3664 2001 c0 -15 3 -17 13 -9 7 6 13 14 13 19 0 5 -6 9 -13 9 -7 0
-13 -9 -13 -19z"/>
<path d="M3610 1964 c-24 -9 -29 -13 -14 -13 11 -1 29 6 40 14 22 17 20 17
-26 -1z"/>
<path d="M3426 1948 c-3 -13 -5 -32 -5 -43 1 -11 5 -2 10 19 10 42 6 62 -5 24z"/>
<path d="M3459 1903 c-13 -16 -12 -17 4 -4 9 7 17 15 17 17 0 8 -8 3 -21 -13z"/>
<path d="M3412 1810 c1 -73 1 -74 7 -20 3 30 10 61 15 69 6 9 5 12 -2 7 -5 -3
-13 0 -15 6 -3 7 -5 -21 -5 -62z"/>
<path d="M1930 1214 c-45 -97 -44 -94 -30 -94 5 0 12 11 16 25 6 23 11 25 64
25 53 0 58 -2 64 -25 4 -14 11 -25 16 -25 14 0 14 -2 -30 94 -21 47 -44 86
-50 86 -5 0 -28 -39 -50 -86z m74 23 c9 -23 16 -46 16 -50 0 -4 -18 -7 -40 -7
-22 0 -40 3 -40 7 0 16 33 93 40 93 4 0 15 -19 24 -43z"/>
<path d="M2192 1208 c0 -51 3 -78 5 -60 4 31 6 32 49 32 50 0 84 25 84 63 0
38 -30 57 -88 57 l-52 0 2 -92z m106 70 c17 -17 15 -53 -3 -68 -9 -7 -32 -13
-53 -14 l-37 -1 -3 48 -3 47 43 0 c24 0 49 -5 56 -12z"/>
<path d="M2460 1210 c0 -53 4 -90 10 -90 6 0 10 14 10 30 0 28 2 30 38 30 50
0 82 23 82 60 0 44 -23 60 -86 60 l-54 0 0 -90z m113 59 c29 -40 -5 -79 -69
-79 -22 0 -24 4 -24 50 l0 50 39 0 c29 0 44 -6 54 -21z"/>
<path d="M2730 1210 l0 -90 60 0 c33 0 60 4 60 10 0 6 -22 10 -50 10 l-50 0 0
80 c0 47 -4 80 -10 80 -6 0 -10 -37 -10 -90z"/>
<path d="M2970 1210 l0 -90 65 0 c37 0 65 4 65 10 0 6 -25 10 -55 10 l-55 0 0
34 c0 34 1 35 48 39 l47 3 -47 2 c-48 2 -48 2 -48 36 0 35 0 35 53 39 l52 3
-62 2 -63 2 0 -90z"/>
<path d="M2405 943 c-88 -21 -87 -157 1 -179 14 -4 40 -2 57 3 28 7 32 14 35
46 2 21 -1 37 -7 37 -6 0 -11 -16 -11 -35 0 -36 -8 -40 -65 -36 -28 3 -65 47
-65 77 0 54 91 99 128 62 9 -9 12 -9 12 0 0 7 -12 17 -26 22 -27 10 -27 11
-59 3z"/>
<path d="M2930 937 c-18 -9 -25 -21 -25 -42 0 -26 6 -32 45 -46 56 -21 73 -44
45 -65 -19 -15 -48 -14 -89 2 -13 5 -17 4 -12 -4 9 -15 69 -26 95 -17 29 9 44
40 32 64 -6 10 -30 24 -55 31 -48 13 -64 34 -44 57 9 11 25 14 56 10 24 -3 40
-1 35 3 -16 16 -58 20 -83 7z"/>
<path d="M3193 935 c-61 -26 -72 -97 -23 -147 27 -27 36 -30 72 -25 22 3 46
11 52 18 8 9 4 10 -19 4 -62 -16 -99 -3 -116 42 -10 27 4 70 29 89 21 16 74
18 89 3 7 -7 13 -7 17 -1 3 6 -8 15 -26 21 -38 13 -36 13 -75 -4z"/>
<path d="M1170 850 c0 -53 4 -90 10 -90 6 0 10 31 10 73 l1 72 35 -57 c37 -60
48 -68 57 -44 3 8 18 34 34 58 l28 43 6 -75 5 -75 2 93 c1 50 -1 92 -5 92 -5
0 -25 -30 -46 -66 -43 -74 -37 -75 -91 19 -16 26 -32 47 -37 47 -5 0 -9 -40
-9 -90z"/>
<path d="M1520 854 c-45 -97 -44 -94 -30 -94 5 0 12 11 16 25 6 23 11 25 64
25 53 0 58 -2 64 -25 4 -14 11 -25 16 -25 14 0 14 -2 -30 94 -21 47 -44 86
-50 86 -5 0 -28 -39 -50 -86z m74 23 c9 -23 16 -46 16 -50 0 -4 -18 -7 -40 -7
-22 0 -40 3 -40 7 0 16 33 93 40 93 4 0 15 -19 24 -43z"/>
<path d="M1780 849 l0 -91 62 4 c51 4 65 9 85 32 31 37 31 89 -2 121 -20 21
-34 25 -85 25 l-60 0 0 -91z m115 69 c26 -12 41 -47 36 -83 -4 -33 -39 -55
-87 -55 l-44 0 0 75 0 75 35 0 c19 0 46 -5 60 -12z"/>
<path d="M2116 903 c-44 -90 -65 -143 -57 -143 4 0 13 11 19 25 10 22 18 25
65 25 48 0 55 -3 66 -26 6 -15 14 -24 17 -21 8 8 -69 177 -82 177 -5 0 -18
-17 -28 -37z m64 -65 c0 -14 -8 -18 -41 -18 -37 0 -40 2 -33 23 3 12 13 35 22
51 l15 30 18 -35 c10 -19 18 -42 19 -51z"/>
<path d="M2676 903 c-44 -90 -65 -143 -57 -143 4 0 13 11 19 25 10 22 18 25
65 25 48 0 55 -3 66 -26 6 -15 14 -24 17 -21 8 8 -69 177 -82 177 -5 0 -18
-17 -28 -37z m64 -65 c0 -14 -8 -18 -41 -18 -37 0 -40 2 -33 23 3 12 13 35 22
51 l15 30 18 -35 c10 -19 18 -42 19 -51z"/>
<path d="M3440 854 c-45 -97 -44 -94 -30 -94 5 0 12 11 16 25 6 23 11 25 64
25 53 0 58 -2 64 -25 4 -14 11 -25 16 -25 14 0 14 -2 -30 94 -21 47 -44 86
-50 86 -5 0 -28 -39 -50 -86z m74 23 c9 -23 16 -46 16 -50 0 -4 -18 -7 -40 -7
-22 0 -40 3 -40 7 0 16 33 93 40 93 4 0 15 -19 24 -43z"/>
<path d="M3700 850 c0 -53 4 -90 10 -90 6 0 10 14 10 30 0 27 3 30 33 30 24 0
37 -7 52 -30 27 -41 42 -38 16 3 -20 32 -20 33 -1 45 24 15 27 64 4 86 -10 11
-34 16 -70 16 l-54 0 0 -90z m113 59 c29 -40 -5 -79 -69 -79 -22 0 -24 4 -24
50 l0 50 39 0 c29 0 44 -6 54 -21z"/>
</g>
</svg>
